<svg width="162" height="160" viewBox="0 0 162 160" fill="none" xmlns="http://www.w3.org/2000/svg">
<g filter="url(#filter0_d_41_2)">
<rect x="30" y="26" width="101" height="100" rx="10" fill="#FF750C"/>
<line x1="38.1" y1="26" x2="38.1" y2="126" stroke="white" stroke-width="0.2"/>
<line x1="118.1" y1="26" x2="118.1" y2="126" stroke="white" stroke-width="0.2"/>
<line x1="118.1" y1="26" x2="118.1" y2="126" stroke="white" stroke-width="0.2"/>
<line x1="43.1" y1="26" x2="43.1" y2="126" stroke="white" stroke-width="0.2"/>
<line x1="48.1" y1="26" x2="48.1" y2="126" stroke="white" stroke-width="0.2"/>
<line x1="53.1" y1="26" x2="53.1" y2="126" stroke="white" stroke-width="0.2"/>
<line x1="58.1" y1="26" x2="58.1" y2="126" stroke="white" stroke-width="0.2"/>
<line x1="63.1" y1="26" x2="63.1" y2="126" stroke="white" stroke-width="0.2"/>
<line x1="68.1" y1="26" x2="68.1" y2="126" stroke="white" stroke-width="0.2"/>
<line x1="73.1" y1="26" x2="73.1" y2="126" stroke="white" stroke-width="0.2"/>
<line x1="78.1" y1="26" x2="78.1" y2="126" stroke="white" stroke-width="0.2"/>
<line x1="78.1" y1="26" x2="78.1" y2="126" stroke="white" stroke-width="0.2"/>
<line x1="83.1" y1="26" x2="83.1" y2="126" stroke="white" stroke-width="0.2"/>
<line x1="88.1" y1="26" x2="88.1" y2="126" stroke="white" stroke-width="0.2"/>
<line x1="93.1" y1="26" x2="93.1" y2="126" stroke="white" stroke-width="0.2"/>
<line x1="98.1" y1="26" x2="98.1" y2="126" stroke="white" stroke-width="0.2"/>
<line x1="103.1" y1="26" x2="103.1" y2="126" stroke="white" stroke-width="0.2"/>
<line x1="108.1" y1="26" x2="108.1" y2="126" stroke="white" stroke-width="0.2"/>
<line x1="113.1" y1="26" x2="113.1" y2="126" stroke="white" stroke-width="0.2"/>
<line x1="118.1" y1="26" x2="118.1" y2="126" stroke="white" stroke-width="0.2"/>
<line x1="123.1" y1="26" x2="123.1" y2="126" stroke="white" stroke-width="0.2"/>
<line x1="38.1" y1="26" x2="38.1" y2="126" stroke="white" stroke-width="0.2"/>
<line x1="118.1" y1="26" x2="118.1" y2="126" stroke="white" stroke-width="0.2"/>
<line x1="118.1" y1="26" x2="118.1" y2="126" stroke="white" stroke-width="0.2"/>
<line x1="43.1" y1="26" x2="43.1" y2="126" stroke="white" stroke-width="0.2"/>
<line x1="48.1" y1="26" x2="48.1" y2="126" stroke="white" stroke-width="0.2"/>
<line x1="53.1" y1="26" x2="53.1" y2="126" stroke="white" stroke-width="0.2"/>
<line x1="58.1" y1="26" x2="58.1" y2="126" stroke="white" stroke-width="0.2"/>
<line x1="63.1" y1="26" x2="63.1" y2="126" stroke="white" stroke-width="0.2"/>
<line x1="68.1" y1="26" x2="68.1" y2="126" stroke="white" stroke-width="0.2"/>
<line x1="73.1" y1="26" x2="73.1" y2="126" stroke="white" stroke-width="0.2"/>
<line x1="78.1" y1="26" x2="78.1" y2="126" stroke="white" stroke-width="0.2"/>
<line x1="78.1" y1="26" x2="78.1" y2="126" stroke="white" stroke-width="0.2"/>
<line x1="83.1" y1="26" x2="83.1" y2="126" stroke="white" stroke-width="0.2"/>
<line x1="88.1" y1="26" x2="88.1" y2="126" stroke="white" stroke-width="0.2"/>
<line x1="93.1" y1="26" x2="93.1" y2="126" stroke="white" stroke-width="0.2"/>
<line x1="98.1" y1="26" x2="98.1" y2="126" stroke="white" stroke-width="0.2"/>
<line x1="103.1" y1="26" x2="103.1" y2="126" stroke="white" stroke-width="0.2"/>
<line x1="108.1" y1="26" x2="108.1" y2="126" stroke="white" stroke-width="0.2"/>
<line x1="113.1" y1="26" x2="113.1" y2="126" stroke="white" stroke-width="0.2"/>
<line x1="118.1" y1="26" x2="118.1" y2="126" stroke="white" stroke-width="0.2"/>
<line x1="123.1" y1="26" x2="123.1" y2="126" stroke="white" stroke-width="0.2"/>
<line x1="33.6285" y1="123.587" x2="43.1035" y2="112.993" stroke="white" stroke-width="0.5"/>
<line x1="42.9539" y1="112.966" x2="47.6738" y2="107.701" stroke="white" stroke-width="0.5"/>
<line x1="47.2657" y1="107.695" x2="53.1176" y2="112.877" stroke="white" stroke-width="0.5"/>
<line x1="52.8232" y1="112.823" x2="57.8232" y2="107.823" stroke="white" stroke-width="0.5"/>
<line x1="57.9646" y1="107.965" x2="62.9646" y2="102.965" stroke="white" stroke-width="0.1"/>
<line x1="62.8232" y1="102.823" x2="67.8232" y2="97.8232" stroke="white" stroke-width="0.5"/>
<line x1="67.8232" y1="97.8232" x2="72.8232" y2="92.8232" stroke="white" stroke-width="0.5"/>
<line x1="72.8232" y1="92.8232" x2="77.8232" y2="87.8232" stroke="white" stroke-width="0.5"/>
<line x1="77.8232" y1="87.8232" x2="82.8232" y2="82.8232" stroke="white" stroke-width="0.5"/>
<line x1="83.1768" y1="82.8232" x2="88.1768" y2="87.8232" stroke="white" stroke-width="0.5"/>
<line x1="87.8232" y1="87.8232" x2="92.8232" y2="82.8232" stroke="white" stroke-width="0.5"/>
<line x1="92.8232" y1="82.8232" x2="97.8232" y2="77.8232" stroke="white" stroke-width="0.5"/>
<line x1="97.8232" y1="77.8232" x2="102.823" y2="72.8232" stroke="white" stroke-width="0.5"/>
<line x1="102.823" y1="72.8232" x2="107.823" y2="67.8232" stroke="white" stroke-width="0.5"/>
<line x1="107.823" y1="67.8232" x2="112.823" y2="62.8232" stroke="white" stroke-width="0.5"/>
<line x1="112.177" y1="62.8232" x2="117.177" y2="67.8232" stroke="white" stroke-width="0.5"/>
<line x1="57.8232" y1="107.823" x2="62.8232" y2="102.823" stroke="white" stroke-width="0.5"/>
<line x1="116.8" y1="67.85" x2="131.8" y2="47.85" stroke="white" stroke-width="0.5"/>
</g>
<line x1="131" y1="31.1" x2="30" y2="31.1" stroke="white" stroke-width="0.2"/>
<line x1="131" y1="114.865" x2="30" y2="114.865" stroke="white" stroke-width="0.2"/>
<line x1="131" y1="114.865" x2="30" y2="114.865" stroke="white" stroke-width="0.2"/>
<line x1="131" y1="36.3353" x2="30" y2="36.3353" stroke="white" stroke-width="0.2"/>
<line x1="131" y1="41.5706" x2="30" y2="41.5706" stroke="white" stroke-width="0.2"/>
<line x1="131" y1="46.8059" x2="30" y2="46.8059" stroke="white" stroke-width="0.2"/>
<line x1="131" y1="52.0412" x2="30" y2="52.0412" stroke="white" stroke-width="0.2"/>
<line x1="131" y1="57.2765" x2="30" y2="57.2765" stroke="white" stroke-width="0.2"/>
<line x1="131" y1="62.5118" x2="30" y2="62.5118" stroke="white" stroke-width="0.2"/>
<line x1="131" y1="67.7471" x2="30" y2="67.7471" stroke="white" stroke-width="0.2"/>
<line x1="131" y1="72.9824" x2="30" y2="72.9824" stroke="white" stroke-width="0.2"/>
<line x1="131" y1="72.9824" x2="30" y2="72.9824" stroke="white" stroke-width="0.2"/>
<line x1="131" y1="78.2176" x2="30" y2="78.2176" stroke="white" stroke-width="0.2"/>
<line x1="131" y1="83.4529" x2="30" y2="83.4529" stroke="white" stroke-width="0.2"/>
<line x1="131" y1="88.6882" x2="30" y2="88.6882" stroke="white" stroke-width="0.2"/>
<line x1="131" y1="93.9235" x2="30" y2="93.9235" stroke="white" stroke-width="0.2"/>
<line x1="131" y1="99.1588" x2="30" y2="99.1588" stroke="white" stroke-width="0.2"/>
<line x1="131" y1="104.394" x2="30" y2="104.394" stroke="white" stroke-width="0.2"/>
<line x1="131" y1="109.629" x2="30" y2="109.629" stroke="white" stroke-width="0.2"/>
<line x1="131" y1="114.865" x2="30" y2="114.865" stroke="white" stroke-width="0.2"/>
<line x1="131" y1="120.1" x2="30" y2="120.1" stroke="white" stroke-width="0.2"/>
<defs>
<filter id="filter0_d_41_2" x="0" y="0" width="162" height="160" filterUnits="userSpaceOnUse" color-interpolation-filters="sRGB">
<feFlood flood-opacity="0" result="BackgroundImageFix"/>
<feColorMatrix in="SourceAlpha" type="matrix" values="0 0 0 0 0 0 0 0 0 0 0 0 0 0 0 0 0 0 127 0" result="hardAlpha"/>
<feOffset dy="4"/>
<feGaussianBlur stdDeviation="15"/>
<feComposite in2="hardAlpha" operator="out"/>
<feColorMatrix type="matrix" values="0 0 0 0 0 0 0 0 0 0 0 0 0 0 0 0 0 0 0.4 0"/>
<feBlend mode="normal" in2="BackgroundImageFix" result="effect1_dropShadow_41_2"/>
<feBlend mode="normal" in="SourceGraphic" in2="effect1_dropShadow_41_2" result="shape"/>
</filter>
</defs>
</svg>
